<svg width="32" height="32" xmlns="http://www.w3.org/2000/svg"><g class="prefix__layer"><path d="M10.579 2.327v21.4a2.19 2.19 0 001.5 2.08l11.65 3.88H8.389v-26.3a2.19 2.19 0 00-2.19 2.19v11.92a2.19 2.19 0 01-.5 1.4l-1.18 1.4a2.19 2.19 0 00-.5 1.4v7.98a2.19 2.19 0 002.19 2.19h17.54a2.19 2.19 0 002.19-2.19V5.567L13.649.307a2.19 2.19 0 00-3.06 2.01z" fill="#F57F17"/><path d="M14 12l2 16 7 2 7-2 2-16H14zm8 5.9L18.66 20 22 22.1V24l-5.23-3.39v-1.22L22 16v1.9zm7.23 2.73L24 24v-1.9l3.36-2.1L24 17.9V16l5.23 3.37v1.26z" fill="#FFE0B2"/></g></svg>