<svg width="32" height="32" xmlns="http://www.w3.org/2000/svg" xmlns:svg="http://www.w3.org/2000/svg">
 <g class="layer">
  <title>Layer 1</title>
  <path d="m12.62,7.12l-1.4,-1.18a2.2,2.2 0 0 0 -1.4,-0.51l-7.99,0a2.2,2.2 0 0 0 -2.2,2.2l0,17.58a2.2,2.2 0 0 0 2.2,2.2l26.37,0a2.2,2.2 0 0 0 2.2,-2.2l0,-15.38a2.2,2.2 0 0 0 -2.2,-2.2l-14.15,0a2.2,2.2 0 0 1 -1.4,-0.51l-0.02,0z" fill="#F57F17" id="svg_1" transform="rotate(270 15.0143 16.4093)"/>
  <path d="m14,12l2,16l7,2l7,-2l2,-16l-18,0zm8,5.9l-3.34,2.1l3.34,2.1l0,1.9l-5.23,-3.39l0,-1.22l5.23,-3.39l0,1.9zm7.23,2.73l-5.23,3.37l0,-1.9l3.36,-2.1l-3.36,-2.1l0,-1.9l5.23,3.37l0,1.26z" fill="#FFE0B2" id="svg_2"/>
 </g>
</svg>