<svg width="32" height="32" xmlns="http://www.w3.org/2000/svg" xmlns:svg="http://www.w3.org/2000/svg">
 <g class="layer">
  <title>Layer 1</title>
  <path d="m28.31,11.63l-21.4,0a2.19,2.19 0 0 0 -2.08,1.5l-3.88,11.65l0,-15.34l26.3,0a2.19,2.19 0 0 0 -2.19,-2.19l-11.92,0a2.19,2.19 0 0 1 -1.4,-0.5l-1.4,-1.18a2.19,2.19 0 0 0 -1.4,-0.5l-7.98,0a2.19,2.19 0 0 0 -2.19,2.19l0,17.54a2.19,2.19 0 0 0 2.19,2.19l24.11,0l5.26,-12.29a2.19,2.19 0 0 0 -2.01,-3.06z" fill="#F57F17" id="svg_1" transform="rotate(270 14.7929 15.8442)"/>
  <path d="m14,12l2,16l7,2l7,-2l2,-16l-18,0zm8,5.9l-3.34,2.1l3.34,2.1l0,1.9l-5.23,-3.39l0,-1.22l5.23,-3.39l0,1.9zm7.23,2.73l-5.23,3.37l0,-1.9l3.36,-2.1l-3.36,-2.1l0,-1.9l5.23,3.37l0,1.26z" fill="#FFE0B2" id="svg_2"/>
 </g>
</svg>